<svg>
<symbol width="50" height="53" viewBox="0 0 50 53" fill="none" id="program-slim" xmlns="http://www.w3.org/2000/svg">
<circle cx="25" cy="28" r="25" fill="#68B738"/>
<g clip-path="url(#clip0_94_6)">
<path d="M35.2034 0H35.008C34.6778 0.187081 34.415 0.473924 34.2571 0.819588C33.968 1.37738 33.7453 1.96735 33.5937 2.57732C33.5612 2.76073 33.4688 2.92811 33.331 3.05315C33.1932 3.17818 33.0179 3.25377 32.8326 3.26804C32.2658 3.36597 31.7288 3.59243 31.2626 3.93012C30.7965 4.26781 30.4135 4.7078 30.1429 5.21649C29.7708 5.87697 29.4526 6.5665 29.1914 7.27835C28.4611 9.17526 27.9006 11.134 27.2114 13.0464C26.8874 13.9175 26.872 13.9175 25.8949 13.9175C24.7274 13.9175 24.8097 13.7371 24.7943 15.0258C24.7943 15.433 24.9177 15.6392 25.3497 15.6186C25.4834 15.6186 25.684 15.5515 25.7354 15.7268C25.7869 15.9021 25.612 15.9794 25.5091 16.0825C24.8994 16.7029 24.1276 17.1388 23.2823 17.3402C22.3051 17.6031 21.3074 17.8093 20.356 18.1289C17.9131 18.9485 15.6554 20.0928 13.8966 22.0309C12.8681 23.2347 12.0445 24.6001 11.4589 26.0722C9.57143 30.5258 8.656 35.2165 7.94629 39.9536C7.612 42.1753 7.37543 44.4072 7.19543 46.6546C7.10286 47.7577 7 48.8763 7 50H24.1411C24.1696 49.7731 24.1283 49.543 24.0229 49.3402C23.858 48.9289 23.5901 48.5672 23.2451 48.29C22.9 48.0128 22.4895 47.8295 22.0531 47.7577C21.6931 47.6753 21.652 47.567 21.8731 47.2835C22.2338 46.801 22.5103 46.2607 22.6909 45.6856C23.5291 43.2062 23.8531 40.6186 24.2594 38.0567C24.4889 36.0999 25.0894 34.2051 26.0286 32.4742C26.7611 31.2002 27.7382 30.0842 28.9034 29.1907C29.3303 28.866 29.3457 28.866 29.4177 29.4175C29.4691 29.7835 29.4794 30.1598 29.5051 30.5309C29.6595 32.9662 29.6285 35.4097 29.4126 37.8402C29.2184 39.7242 29.1926 41.6217 29.3354 43.5103C29.5399 45.7029 29.9304 47.8739 30.5029 50H37.3429C37.2536 49.442 36.9973 48.9243 36.6078 48.5156C36.2184 48.1069 35.7143 47.8264 35.1623 47.7113C34.5177 47.6087 33.8587 47.6438 33.2286 47.8144C32.92 47.8866 32.7914 47.8144 32.7657 47.4794C32.5529 44.7505 32.7261 42.0051 33.28 39.3247C33.966 36.2304 34.4912 33.1025 34.8537 29.9536C34.9887 28.6819 35.3881 27.4528 36.0263 26.3454C36.6383 25.2526 37.1731 24.1186 37.7749 23.0206C38.0138 22.6214 38.1575 22.1723 38.195 21.7083C38.2325 21.2443 38.1626 20.7779 37.9909 20.3454C37.852 19.9794 37.7183 19.6082 37.5486 19.2577C37.0343 18.2526 36.52 17.2577 36.0469 16.2423C35.7949 15.7268 35.8514 15.6649 36.412 15.6495C37.2503 15.6495 37.2503 15.6495 37.2657 14.8041C37.2657 14.6907 37.2657 14.5773 37.2657 14.4639C37.2657 14.1082 37.132 13.9124 36.7514 13.9485C36.4943 13.9485 36.2371 13.9485 35.9697 13.9485C35.6149 13.9485 35.512 13.799 35.5994 13.433C35.7729 12.838 36.1142 12.306 36.5823 11.9009C37.0503 11.4958 37.6252 11.2349 38.2377 11.1495C39.3772 11.0505 40.5251 11.1252 41.6423 11.3711C41.7712 11.4118 41.9109 11.4001 42.0312 11.3383C42.1515 11.2766 42.2427 11.1699 42.2851 11.0412C42.4909 10.5258 42.7171 10.0103 42.9486 9.49484C43.001 9.40339 43.0242 9.29801 43.015 9.19293C43.0058 9.08785 42.9647 8.98812 42.8971 8.90722C41.2514 6.81443 39.4669 4.86082 37.0343 3.60825C36.9168 3.55754 36.8138 3.47814 36.7347 3.3773C36.6557 3.27646 36.6031 3.15738 36.5817 3.03093C36.444 2.29408 36.225 1.57487 35.9286 0.886598C35.7895 0.519904 35.5349 0.20865 35.2034 0V0Z" fill="black"/>
</g>
<defs>
<clipPath id="clip0_94_6">
<rect width="36" height="50" fill="white" transform="translate(7)"/>
</clipPath>
</defs>
</symbol>

<symbol width="67" height="50" viewBox="0 0 67 50" fill="none" id="program-pro" xmlns="http://www.w3.org/2000/svg">
<circle cx="34" cy="25" r="25" fill="#68B738"/>
<g clip-path="url(#clip0_95_1)">
<path d="M61.5591 13.8784C62.1364 12.96 62.9036 12.1757 63.8091 11.5784C64.3091 11.2284 64.6091 11.2284 64.9091 11.8784C65.3091 12.8284 65.6591 13.8284 65.3591 14.8784C65.3045 15.0565 65.2942 15.2452 65.3291 15.4282C65.3639 15.6112 65.4429 15.7829 65.5591 15.9284C65.8591 16.3284 66.1091 16.7284 66.3591 17.0784C66.6994 17.5103 66.9201 18.0241 66.9991 18.5682C67.078 19.1123 67.0125 19.6676 66.8091 20.1784C66.6256 20.6743 66.5908 21.213 66.7091 21.7284C66.809 22.2234 66.809 22.7334 66.7091 23.2284C66.6687 23.5991 66.5187 23.9494 66.2782 24.2344C66.0377 24.5194 65.7177 24.7262 65.3591 24.8284C64.7196 24.9501 64.1488 25.3069 63.7591 25.8284C63.7119 25.9052 63.6457 25.9686 63.5669 26.0124C63.488 26.0562 63.3993 26.0789 63.3091 26.0784C62.7091 26.1784 61.2091 24.8284 61.2091 24.2284V23.9284C61.2591 22.1284 61.1591 21.9784 59.5091 21.2284C59.1638 21.1066 58.8544 20.9004 58.6091 20.6284C58.3091 20.2284 57.9091 20.2784 57.4591 20.4284C57.0091 20.5784 56.7591 20.8784 56.8091 21.3784C56.9599 22.5889 57.0101 23.8097 56.9591 25.0284C56.9624 25.1675 56.9966 25.3041 57.0591 25.4284C58.6091 27.6784 59.2091 30.3284 59.9591 32.8784C60.5591 34.8284 61.6591 35.8784 63.6591 36.0284C63.9792 36.054 64.2968 36.1041 64.6091 36.1784C65.02 36.2444 65.4017 36.4322 65.7048 36.7174C66.0078 37.0027 66.2183 37.3723 66.3091 37.7784C66.6591 38.8284 66.4591 39.0784 65.4091 39.0784H62.1591C61.7384 39.0997 61.3259 38.9562 61.0091 38.6784C60.5031 38.2514 59.9282 37.9132 59.3091 37.6784C58.6247 37.4258 58.0323 36.9728 57.6091 36.3784C57.0234 35.5602 56.3531 34.806 55.6091 34.1284C54.2091 32.6784 52.7091 31.2784 51.4091 29.7784C50.4195 28.7563 49.8486 27.4006 49.8091 25.9784C49.8091 25.5284 49.7091 25.3284 49.2091 25.5284C49.0594 25.6234 48.8864 25.6753 48.7091 25.6784C47.3091 25.6784 46.6091 26.5284 46.1091 27.7784C45.6591 28.8284 45.0591 29.8284 44.5091 30.8784C44.1972 31.5357 44.0269 32.2511 44.0091 32.9784C44.0091 34.1784 44.3091 34.5784 45.4091 34.9784C46.1091 35.2284 46.7591 35.4784 47.1091 36.1784C47.5091 36.9784 47.4091 37.1784 46.5591 37.2284H43.1591C42.9631 37.2478 42.7659 37.2052 42.5955 37.1065C42.425 37.0078 42.2899 36.8581 42.2091 36.6784L41.3091 35.1784C41.0438 34.7871 40.874 34.3389 40.8132 33.87C40.7524 33.4011 40.8024 32.9245 40.9591 32.4784C41.1755 31.6102 41.1926 30.7042 41.0091 29.8284C40.8831 29.2185 40.8939 28.5882 41.0409 27.9829C41.1879 27.3777 41.4674 26.8126 41.8591 26.3284C42.1591 25.9784 42.1591 25.8284 41.6591 25.7284C39.6146 25.2941 37.6325 24.6054 35.7591 23.6784C35.7459 23.6784 35.7331 23.6732 35.7238 23.6638C35.7144 23.6544 35.7091 23.6417 35.7091 23.6284C34.1091 23.0284 33.8091 23.1284 33.3591 24.7784C32.9591 26.1784 32.5591 27.5784 32.2591 29.0284C31.9091 30.6284 32.3091 32.1284 32.8091 33.6284C33.0091 34.2284 33.6091 34.1784 34.0591 34.3284C35.0591 34.6284 35.9091 35.0284 36.3091 36.0784C36.6591 36.8784 36.6091 36.9784 35.7591 36.9784C34.9091 36.9784 34.0591 36.9284 33.1591 36.9784C32.3997 36.9922 31.6584 36.7451 31.0591 36.2784C28.6591 34.6784 27.9591 32.2284 27.7591 29.5784C27.6591 27.9284 26.7591 26.6284 25.7091 25.3784C25.5091 25.1284 25.3091 25.0284 25.0091 25.2284C23.9359 25.8202 22.8153 26.3219 21.6591 26.7284C19.2462 27.5804 17.1289 29.1077 15.5591 31.1284C14.9729 31.8659 14.5933 32.746 14.4591 33.6784C14.3091 34.5784 14.5591 34.9784 15.4591 35.2284C16.3591 35.4784 16.8091 35.9784 16.9091 36.9284C16.9591 37.3284 16.8091 37.5284 16.4091 37.5284H12.3591C12.2266 37.519 12.0982 37.4778 11.9851 37.4081C11.8719 37.3385 11.7772 37.2425 11.7091 37.1284C11.081 36.3508 10.7449 35.3779 10.7591 34.3784C10.7329 32.6509 10.8837 30.9252 11.2091 29.2284C11.2759 28.7203 11.4656 28.2361 11.7618 27.8178C12.0581 27.3996 12.4519 27.06 12.9091 26.8284C15.8591 25.4284 17.4091 22.7784 18.8091 20.0284C19.1091 19.4784 18.8591 19.3784 18.3591 19.4284C16.9598 19.6227 15.634 20.1737 14.5091 21.0284C13.0362 22.1029 11.6487 23.2897 10.3591 24.5784C8.98394 25.9753 7.16046 26.8427 5.20911 27.0284C1.55911 27.2284 -0.140885 25.1784 0.00911497 21.8784C0.0426462 20.7532 0.466939 19.6748 1.20912 18.8284C1.46713 18.4939 1.81898 18.2439 2.21975 18.1103C2.62052 17.9767 3.05201 17.9656 3.45912 18.0784C4.20912 18.2784 4.40911 18.6784 4.10911 19.4284C3.95911 19.7284 3.75911 19.9784 3.60911 20.2784C3.39341 20.5849 3.22488 20.922 3.10911 21.2784C2.55911 22.7784 3.30911 23.8284 4.85911 23.9784C6.50911 24.1284 7.85912 23.4284 9.10912 22.4284C10.6151 21.2226 11.9595 19.8277 13.1091 18.2784C13.9687 17.1471 15.0512 16.2041 16.2895 15.5075C17.5279 14.8109 18.8959 14.3756 20.3091 14.2284C21.4591 14.0784 22.4591 13.5784 23.5591 13.2784C25.6164 12.6512 27.7586 12.3476 29.9091 12.3784C30.9052 12.4199 31.8974 12.2317 32.8091 11.8284C35.2591 10.8284 37.8091 10.8284 40.3591 11.3284C42.3591 11.7284 44.3591 12.2284 46.3091 12.7284C47.4696 12.9447 48.6629 12.9106 49.8091 12.6284C52.0034 12.0722 54.248 11.7372 56.5091 11.6284C57.9904 11.5564 59.4667 11.8482 60.8091 12.4784C61.8091 12.9284 61.8091 12.9284 61.5591 13.8784Z" fill="black"/>
</g>
<defs>
<clipPath id="clip0_95_1">
<rect width="67" height="28" fill="white" transform="translate(0 11)"/>
</clipPath>
</defs>
</symbol>


<symbol width="31" height="32" viewBox="0 0 31 32" preserveAspectRatio="xMidYMid" fill="none" id="advantage-beneficial" xmlns="http://www.w3.org/2000/svg">
<g clip-path="url(#clip0_130_911)">
<path d="M28.3438 2.767C28.2434 2.317 27.8647 2 27.4325 2C27.4306 2 27.4288 2 27.4269 2C22.4891 2.033 10.4816 2.916 5.63375 10.38C3.11562 14.258 2.89906 19.293 4.98969 25.345C5.00562 25.392 5.03844 25.424 5.06 25.467C4.31281 27.44 4.02312 28.753 4.01562 28.79C3.90687 29.33 4.23031 29.862 4.73656 29.978C4.80219 29.993 4.86781 30 4.93344 30C5.36562 30 5.75469 29.679 5.84937 29.21C5.86906 29.108 8.25781 18.837 16.7028 12.832C17.1341 12.526 17.2503 11.905 16.9625 11.445C16.6747 10.985 16.0934 10.86 15.6622 11.168C10.8734 14.573 7.92406 19.176 6.18969 22.824C4.94844 18.246 5.27375 14.447 7.17594 11.519C10.9194 5.755 19.7984 4.365 25.1581 4.071C24.005 5.872 22.745 9.174 22.745 15C22.745 18.12 21.9153 20.522 20.2803 22.14C17.6591 24.731 13.4009 24.974 10.2866 24.724C9.76906 24.679 9.32 25.095 9.28062 25.646C9.24125 26.196 9.62844 26.676 10.1441 26.718C10.7675 26.769 11.4331 26.8 12.125 26.8C15.2956 26.8 18.9941 26.137 21.5544 23.606C23.5888 21.595 24.62 18.7 24.62 15.001C24.62 5.902 27.8356 3.905 27.8516 3.896C28.2416 3.687 28.4459 3.219 28.3438 2.767Z" fill="white"/>
</g>
<defs>
<clipPath id="clip0_130_911">
<rect width="30" height="32" fill="white" transform="translate(0.5)"/>
</clipPath>
</defs>
</symbol>

<symbol width="26" height="29" viewBox="0 0 26 29" fill="none" id="advantage-powder" xmlns="http://www.w3.org/2000/svg">
<path d="M10.875 0C9.24375 0 7.975 1.35938 7.975 3.08125C7.975 4.80312 9.24375 6.1625 10.875 6.1625C12.5063 6.1625 13.775 4.80312 13.775 3.08125C13.775 1.35938 12.5063 0 10.875 0ZM10.875 1.17812C11.8719 1.17812 12.5969 2.02094 12.5969 3.08125C12.5969 4.07812 11.8084 4.98438 10.875 4.98438C9.87813 4.98438 9.15313 4.14156 9.15313 3.08125C9.15313 2.08437 9.9325 1.17812 10.875 1.17812V1.17812ZM0 24.7406C0 25.9188 0.407813 26.9156 1.35938 27.7313C2.35625 28.5831 3.53438 28.5106 3.53438 28.5106H22.5656C23.345 28.5106 24.3781 28.13 25.1938 27.0606C26.0366 26.0638 25.9822 24.7044 25.9822 24.7044V7.48563C25.9822 7.05063 25.8734 6.8875 25.2391 6.8875C24.6047 6.8875 24.5503 7.15938 24.5503 7.47656V24.6953C24.5322 24.9944 24.4778 25.7828 23.8072 26.4172C23.0731 27.0425 22.3572 26.9609 22.3572 26.9609C22.3572 26.9609 4.23219 26.9609 3.32594 26.9338C2.98156 26.8703 2.41969 26.7434 1.87594 26.0275C1.36844 25.3025 1.46813 24.3962 1.46813 24.3962V7.1775C1.46813 6.71531 1.2325 6.54313 0.743125 6.54313C0.25375 6.54313 0 6.71531 0 7.12313V24.7406ZM16.3125 8.42813C15.225 8.66375 14.1375 8.80875 12.0531 10.7844C9.96875 12.7781 8.42813 12.6875 6.8875 12.5969C5.34688 12.5063 3.71563 11.0563 3.44375 10.6938C3.10844 10.3403 2.5375 10.5759 2.35625 10.8116C2.20219 11.0472 2.20219 11.455 2.465 11.8084C3.73375 12.9866 4.91188 13.8928 7.1775 14.0741C9.44313 14.2916 11.6181 13.2675 13.0681 11.8084C14.5181 10.3584 15.2431 10.0866 16.3306 9.90531C18.9588 9.48844 20.4994 10.5216 21.4056 11.1741C22.4025 12.2616 22.6744 11.9534 22.9463 11.6453C23.49 10.9294 22.7197 10.3766 21.8588 9.74219C20.0463 8.56406 18.3244 8.11094 16.3306 8.47344L16.3125 8.42813ZM7.25 15.5875C6.07188 15.5875 5.16563 16.5844 5.16563 17.8531C5.16563 19.1219 6.07188 20.1188 7.25 20.1188C8.42813 20.1188 9.33438 19.1219 9.33438 17.8531C9.33438 16.5844 8.42813 15.5875 7.25 15.5875ZM19.0313 16.3669C17.4906 16.3669 16.2219 17.7263 16.2219 19.3575C16.2219 20.9887 17.4906 22.3481 19.0313 22.3481C20.5719 22.3481 21.8406 20.9887 21.8406 19.3575C21.8406 17.7263 20.5719 16.3669 19.0313 16.3669ZM19.0313 17.8169C19.8288 17.8169 20.4813 18.5147 20.4813 19.3575C20.4813 20.2184 19.8288 20.8981 19.0313 20.8981C18.2338 20.8981 17.5813 20.2003 17.5813 19.3575C17.5813 18.4966 18.2338 17.8169 19.0313 17.8169Z" fill="white"/>
</symbol>

<symbol width="25" height="30" viewBox="0 0 25 30" fill="none" id="advantage-eating" xmlns="http://www.w3.org/2000/svg">
<path fill-rule="evenodd" clip-rule="evenodd" d="M18.6173 0.0761497C18.991 -0.0786313 19.4211 0.00692445 19.7071 0.292922C20.6156 1.20142 21.8038 3.17065 22.7659 6.21082C23.7373 9.28039 24.5 13.5081 24.5 19C24.5 19.5523 24.0523 20 23.5 20H20V29C20 29.5523 19.5523 30 19 30C18.4477 30 18 29.5523 18 29V1.00003C18 0.595567 18.2436 0.230931 18.6173 0.0761497ZM20 18H22.4912C22.4053 13.1836 21.7051 9.48755 20.8591 6.81424C20.5807 5.93457 20.2885 5.1715 20 4.51895V18Z" fill="white"/>
<path fill-rule="evenodd" clip-rule="evenodd" d="M6 0C6.55228 0 7 0.447715 7 1V29C7 29.5523 6.55228 30 6 30C5.44772 30 5 29.5523 5 29V1C5 0.447715 5.44772 0 6 0Z" fill="white"/>
<path fill-rule="evenodd" clip-rule="evenodd" d="M1.5 0C2.05228 0 2.5 0.447715 2.5 1V6.5C2.5 7.05686 2.69203 7.81518 3.20088 8.41656C3.68001 8.98281 4.51446 9.5 5.99993 9.5C6.55221 9.5 6.99993 9.94771 6.99993 10.5C6.99993 11.0523 6.55221 11.5 5.99993 11.5C3.98547 11.5 2.56995 10.7672 1.6741 9.70844C0.807973 8.68482 0.5 7.44314 0.5 6.5V1C0.5 0.447715 0.947715 0 1.5 0Z" fill="white"/>
<path fill-rule="evenodd" clip-rule="evenodd" d="M10.5 0C9.94771 0 9.5 0.447715 9.5 1V6.5C9.5 7.05686 9.30797 7.81518 8.79912 8.41656C8.31999 8.98281 7.4854 9.5 5.99993 9.5C5.44765 9.5 5.00007 9.94771 5.00007 10.5C5.00007 11.0523 5.44765 11.5 5.99993 11.5C8.01439 11.5 9.43005 10.7672 10.3259 9.70844C11.192 8.68482 11.5 7.44314 11.5 6.5V1C11.5 0.447715 11.0523 0 10.5 0Z" fill="white"/>
</symbol>

<symbol width="26" height="31" viewBox="0 0 26 31" fill="none" id="advantage-changes" xmlns="http://www.w3.org/2000/svg">
<path d="M5.53799 0C4.47504 0 4.47504 1.5831 5.53799 1.5831H12.1815V3.18731C5.37855 3.62002 0 9.41417 0 16.4854C0 20.4959 1.74325 24.1159 4.4963 26.5539C4.97463 26.976 5.03841 27.7254 4.60259 28.1897L3.07194 29.7412C2.32787 30.4272 3.43334 31.4931 4.10301 30.7438L6.10136 28.7069C6.45214 28.3692 6.97298 28.2847 7.4088 28.4958C9.12736 29.3397 11.0169 29.784 12.9341 29.795C14.8513 29.8059 16.7459 29.3833 18.4742 28.5591C18.8993 28.348 19.4308 28.4325 19.771 28.7702L21.7055 30.7438C22.3858 31.377 23.3638 30.4272 22.7472 29.7412L21.3016 28.2636C20.8552 27.8098 20.919 27.0605 21.4079 26.6277C22.8584 25.3585 24.0186 23.7959 24.8106 22.0447C25.6026 20.2936 26.0081 18.3944 25.9999 16.4748C25.9999 9.40362 20.5894 3.59891 13.7759 3.18731V1.5831H20.4194C21.4823 1.5831 21.4823 0 20.4194 0H5.53799ZM1.43499 16.4748C1.43499 9.94187 6.61158 4.65431 12.9999 4.65431C19.3777 4.65431 24.5543 9.94187 24.5543 16.4748C24.5543 23.0183 19.3777 28.3164 12.9999 28.3164C6.62221 28.3164 1.43499 23.0183 1.43499 16.4748ZM12.1921 8.37988C12.1921 7.28226 13.8503 7.28226 13.8503 8.37988V17.0131C13.8503 17.237 13.7607 17.4517 13.6012 17.6101C13.4418 17.7684 13.2255 17.8574 12.9999 17.8574C12.7875 17.8574 12.5836 17.7743 12.4324 17.6262C12.2812 17.478 12.1949 17.2767 12.1921 17.0658V8.37988ZM7.21746 10.9973C7.52475 10.9973 7.81945 10.8761 8.03673 10.6603C8.25402 10.4446 8.37608 10.152 8.37608 9.84688C8.37608 9.54178 8.25402 9.24918 8.03673 9.03344C7.81945 8.8177 7.52475 8.6965 7.21746 8.6965C6.93069 8.72386 6.66447 8.85633 6.47075 9.06805C6.27702 9.27977 6.16969 9.55556 6.16969 9.84161C6.16969 10.1277 6.27702 10.4034 6.47075 10.6152C6.66447 10.8269 6.93069 10.9593 7.21746 10.9867V10.9973ZM18.7718 10.9973C19.0791 10.9973 19.3738 10.8761 19.5911 10.6603C19.8083 10.4446 19.9304 10.152 19.9304 9.84688C19.9304 9.54178 19.8083 9.24918 19.5911 9.03344C19.3738 8.8177 19.0791 8.6965 18.7718 8.6965C18.485 8.72386 18.2188 8.85633 18.0251 9.06805C17.8313 9.27977 17.724 9.55556 17.724 9.84161C17.724 10.1277 17.8313 10.4034 18.0251 10.6152C18.2188 10.8269 18.485 10.9593 18.7718 10.9867V10.9973ZM8.37608 23.5882C8.37608 25.1185 6.05884 25.1185 6.05884 23.5882C6.05884 22.0579 8.37608 22.0579 8.37608 23.5882ZM12.9999 27.0288C13.1607 27.0441 13.3229 27.0259 13.4762 26.9754C13.6294 26.9248 13.7703 26.843 13.8899 26.7352C14.0094 26.6273 14.1049 26.4959 14.1703 26.3493C14.2356 26.2026 14.2694 26.044 14.2694 25.8837C14.2694 25.7233 14.2356 25.5648 14.1703 25.4181C14.1049 25.2715 14.0094 25.14 13.8899 25.0322C13.7703 24.9244 13.6294 24.8426 13.4762 24.792C13.3229 24.7414 13.1607 24.7232 12.9999 24.7386C12.7132 24.7659 12.4469 24.8984 12.2532 25.1101C12.0595 25.3219 11.9522 25.5976 11.9522 25.8837C11.9522 26.1697 12.0595 26.4455 12.2532 26.6572C12.4469 26.869 12.7132 27.0014 12.9999 27.0288ZM4.91085 16.6437C4.9263 16.8033 4.90797 16.9643 4.85704 17.1165C4.80611 17.2687 4.72371 17.4086 4.61511 17.5273C4.50651 17.646 4.37413 17.7408 4.22644 17.8057C4.07876 17.8706 3.91904 17.9041 3.75755 17.9041C3.59605 17.9041 3.43633 17.8706 3.28865 17.8057C3.14097 17.7408 3.00858 17.646 2.89998 17.5273C2.79138 17.4086 2.70898 17.2687 2.65805 17.1165C2.60712 16.9643 2.58879 16.8033 2.60424 16.6437C2.6318 16.3589 2.76522 16.0946 2.97845 15.9023C3.19169 15.7099 3.46945 15.6033 3.75755 15.6033C4.04564 15.6033 4.3234 15.7099 4.53664 15.9023C4.74987 16.0946 4.88329 16.3589 4.91085 16.6437ZM22.237 17.794C22.3978 17.8094 22.56 17.7912 22.7132 17.7406C22.8665 17.6901 23.0074 17.6082 23.127 17.5004C23.2465 17.3926 23.342 17.2611 23.4074 17.1145C23.4727 16.9679 23.5065 16.8093 23.5065 16.6489C23.5065 16.4886 23.4727 16.33 23.4074 16.1834C23.342 16.0367 23.2465 15.9053 23.127 15.7975C23.0074 15.6896 22.8665 15.6078 22.7132 15.5573C22.56 15.5067 22.3978 15.4885 22.237 15.5038C21.9502 15.5312 21.684 15.6637 21.4903 15.8754C21.2966 16.0871 21.1892 16.3629 21.1892 16.6489C21.1892 16.935 21.2966 17.2108 21.4903 17.4225C21.684 17.6342 21.9502 17.7667 22.237 17.794ZM19.9304 23.5987C19.9304 25.1185 17.6132 25.1185 17.6132 23.5882C17.6132 22.0579 19.9304 22.0579 19.9304 23.5882V23.5987Z" fill="white"/>
</symbol>

</svg>
